<svg width="24" height="24" viewBox="0 0 24 24" fill="none" xmlns="http://www.w3.org/2000/svg">
<g id="Frame 1410067003" clip-path="url(#clip0_755_11903)">
<g id="radio">
<g id="CheckCircle">
<path id="Vector" d="M12 1C9.82441 1 7.69767 1.64514 5.88873 2.85383C4.07979 4.06253 2.66989 5.78049 1.83733 7.79048C1.00477 9.80047 0.786929 12.0122 1.21137 14.146C1.6358 16.2798 2.68345 18.2398 4.22183 19.7782C5.76021 21.3166 7.72022 22.3642 9.85401 22.7886C11.9878 23.2131 14.1995 22.9952 16.2095 22.1627C18.2195 21.3301 19.9375 19.9202 21.1462 18.1113C22.3549 16.3023 23 14.1756 23 12C23 9.08262 21.8411 6.28473 19.7782 4.22183C17.7153 2.15893 14.9174 1 12 1ZM17.15 9.3L10.59 15.6C10.4574 15.7256 10.2826 15.797 10.1 15.8C10.0083 15.8004 9.9175 15.782 9.83322 15.7458C9.74893 15.7097 9.67296 15.6567 9.61 15.59L7 13.05C6.8681 12.917 6.79409 12.7373 6.79409 12.55C6.79409 12.3627 6.8681 12.183 7 12.05C7.06518 11.9835 7.14297 11.9306 7.22883 11.8946C7.31469 11.8585 7.40688 11.8399 7.5 11.8399C7.59313 11.8399 7.68532 11.8585 7.77118 11.8946C7.85704 11.9306 7.93483 11.9835 8 12.05L10.08 14.12L16.15 8.29C16.2826 8.15739 16.4625 8.08289 16.65 8.08289C16.8375 8.08289 17.0174 8.15739 17.15 8.29C17.2826 8.42261 17.3571 8.60246 17.3571 8.79C17.3571 8.97754 17.2826 9.15739 17.15 9.29V9.3Z" fill="currentColor"/>
</g>
</g>
</g>
<defs>
<clipPath id="clip0_755_11903">
<rect width="24" height="24" fill="white"/>
</clipPath>
</defs>
</svg>
